<svg width="69" height="69" viewBox="0 0 69 69" fill="none" xmlns="http://www.w3.org/2000/svg">
<path fill-rule="evenodd" clip-rule="evenodd" d="M34.5 67.5C52.7254 67.5 67.5 52.7254 67.5 34.5C67.5 16.2746 52.7254 1.5 34.5 1.5C16.2746 1.5 1.5 16.2746 1.5 34.5C1.5 52.7254 16.2746 67.5 34.5 67.5ZM34.5 69C53.5538 69 69 53.5538 69 34.5C69 15.4462 53.5538 0 34.5 0C15.4462 0 0 15.4462 0 34.5C0 53.5538 15.4462 69 34.5 69Z" fill="white" fill-opacity="0.5"/>
<path fill-rule="evenodd" clip-rule="evenodd" d="M49.0532 25.0464L30.0371 44.5765L20 35.0677L21.0316 33.9787L29.9946 42.47L47.9785 24L49.0532 25.0464Z" fill="white"/>
</svg>
