<svg width="40" height="40" viewBox="0 0 40 40" fill="none" xmlns="http://www.w3.org/2000/svg">
<path d="M34.5302 5.46189C26.933 -2.11496 14.2779 -1.76964 6.25411 6.25411C-1.76964 14.2779 -2.11496 26.933 5.46189 34.5302C13.0591 42.1274 25.7142 41.7618 33.738 33.738C41.7617 25.7143 42.1071 13.0591 34.5302 5.46189ZM31.2801 31.2801C23.7642 38.796 12.6122 39.832 6.37599 33.5958C0.139811 27.3596 1.1961 16.2279 8.71202 8.71202C16.2279 1.1961 27.3799 0.160124 33.6161 6.39631C39.8523 12.6325 38.796 23.7642 31.2801 31.2801Z" fill="#A2E4B8"/>
<path d="M26.5272 28.8427L24.3334 23.0128H14.8064L12.572 28.8427H9.89062L18.0972 7.77783H21.1239L29.2898 28.8427H26.5272ZM15.7205 20.6565H23.4396L20.0473 11.7186C19.8645 11.2311 19.7629 10.9467 19.5801 10.3982C19.3972 10.9467 19.2957 11.2311 19.1129 11.678L15.7205 20.6565Z" fill="#A2E4B8"/>
</svg>
