<svg width="100%" height="100%" viewBox="0 0 658 134" version="1.1"
    xmlns="http://www.w3.org/2000/svg"
    xmlns:xlink="http://www.w3.org/1999/xlink" xml:space="preserve" style="fill-rule:evenodd;clip-rule:evenodd;stroke-linejoin:round;stroke-miterlimit:1.41421;">
    <rect id="animista-logo-ouline-rect" x="0" y="0" width="658" height="134" style="fill:none;"></rect>
    <g id="animista-logo-outline" style="fill: rgb(249, 121, 35)">
        <path id="letter-7" d="M629.14,118.162c0.552,9.384 6.256,15.088 16.192,15.088c8.648,0 10.576,-3.717 11.562,-4.727c0,0 -1.521,1.784 -8.25,1.619c-3.863,-0.095 -4.968,-3.7 -4.968,-9.036l0,-48.024c0,-16.008 -9.016,-25.208 -31.28,-25.208c-19.32,0 -29.808,6.808 -29.808,16.928c0,7.36 5.704,11.96 13.984,11.96c3.864,0 7.741,-3.003 7.741,-3.003c-7.509,-0.438 -11.213,-3.437 -11.213,-9.509c0,-9.752 8.072,-13.984 19.296,-13.984c12.144,0 15.088,5.888 15.088,16.744l0,19.32l-1.84,0c-22.264,0 -47.472,6.44 -47.472,26.312c0,15.272 13.064,20.608 24.84,20.608c13.616,0 22.08,-7.912 25.76,-15.088l0.368,0Zm-1.656,-5.52c0,4.232 -4.048,9.568 -9.2,13.248c-3.68,2.576 -7.912,4.232 -11.96,4.232c-6.808,0 -10.672,-4.968 -10.672,-17.112c0,-10.12 3.312,-16.376 9.384,-19.872c4.784,-2.76 11.224,-4.048 19.136,-4.048l3.312,0l0,23.552Z"></path>
        <path id="letter-6" d="M452.556,133.06c3.191,-4.032 7.178,-3.945 12.679,-2.579c6.174,1.533 12.436,2.579 18.577,2.579c18.032,0 29.072,-11.224 29.072,-25.944c0,-33.12 -53.36,-20.056 -53.36,-41.4c0,-10.488 10.12,-15.272 21.896,-15.272c2.76,0 5.52,0.184 7.912,0.552c2.024,8.832 6.44,16.928 13.984,16.928c4.6,0 6.992,-2.944 6.992,-6.072c0,-5.336 -6.992,-11.04 -18.584,-13.248c-0.552,-3.128 -0.736,-6.256 -0.736,-9.2c0,-14.904 5.704,-35.144 31.464,-35.144c21.16,0 25.208,14.352 25.208,24.472c0,13.432 -7.544,20.24 -19.32,20.24l-5.888,0l0,2.76l12.328,0l0,57.408c0,13.984 3.866,25.759 21.344,23.92c5.19,-0.546 9.4,-4.798 9.713,-5.566c0,0 -3.479,2.119 -7.887,2.374c-7.099,0.41 -6.978,-6.008 -6.978,-16.128l0,-62.008l21.528,0l0,-2.76l-21.528,0l0,-19.136c0,-12.88 -4.968,-28.336 -28.52,-28.336c-26.496,0 -34.408,20.24 -34.408,37.904c0,2.76 0.184,5.704 0.736,8.832c-2.392,-0.368 -4.968,-0.552 -7.544,-0.552c-12.512,0 -28.888,5.704 -28.888,24.656c0,34.224 52.992,20.792 52.992,42.32c0,10.304 -9.752,15.64 -21.344,15.64c-17.112,0 -24.783,-4.484 -27.824,-19.271l-0.683,-3.566l-0.106,0.002c0,0 -0.268,19.19 -2.955,25.595l0.128,0Zm39.904,-81.512c9.384,2.024 14.904,6.624 14.904,10.488c0,1.84 -1.104,3.312 -4.048,3.312c-5.704,0 -9.2,-6.44 -10.856,-13.8Z"></path>
        <path id="letter-5" d="M400.542,132.772l41.952,0l0,-2.76l-12.88,0l0,-80.04l-29.072,0l0,2.76l12.88,0l0,77.28l-12.88,0l0,2.76Zm9.752,-120.528c0,5.336 4.6,9.936 9.936,9.936c5.336,0 9.936,-4.6 9.936,-9.936c0,-5.336 -4.6,-9.936 -9.936,-9.936c-5.336,0 -9.936,4.6 -9.936,9.936Z"></path>
        <path id="letter-4" d="M239.252,132.772l40.664,0l0,-2.76l-11.592,0l0,-46.736c0,-9.568 6.624,-31.28 26.864,-31.28c9.936,0 13.064,4.784 13.064,18.584l0,59.432l-11.592,0l0,2.76l39.376,0l0,-2.76l-11.592,0l0,-47.472c0.368,-9.936 6.992,-30.544 26.864,-30.544c9.936,0 13.064,4.784 13.064,18.584l0,59.432l-11.592,0l0,2.76l40.664,0l0,-2.76l-12.88,0l0,-56.12c0,-17.48 -8.28,-25.208 -26.496,-25.208c-24.104,0 -29.624,20.608 -29.624,20.608l-0.368,0c-1.288,-14.168 -9.568,-20.608 -26.128,-20.608c-24.104,0 -29.624,20.608 -29.624,20.608l-0.368,0l0,-19.32l-28.704,0l0,2.76l12.88,0l0,77.28l-12.88,0l0,2.76Z"></path>
        <path id="letter-3" d="M189.94,132.772l41.952,0l0,-2.76l-12.88,0l0,-80.04l-29.072,0l0,2.76l12.88,0l0,77.28l-12.88,0l0,2.76Zm9.752,-120.528c0,5.336 4.6,9.936 9.936,9.936c5.336,0 9.936,-4.6 9.936,-9.936c0,-5.336 -4.6,-9.936 -9.936,-9.936c-5.336,0 -9.936,4.6 -9.936,9.936Z"></path>
        <path id="letter-2" d="M85.612,132.772l40.664,0l0,-2.76l-11.592,0l0,-46.736c0,-5.152 1.84,-13.8 6.624,-20.608c4.232,-6.072 11.224,-10.672 20.24,-10.672c9.936,0 13.064,4.784 13.064,18.584l0,59.432l-11.592,0l0,2.76l40.664,0l0,-2.76l-12.88,0l0,-56.12c0,-17.48 -8.28,-25.208 -26.496,-25.208c-24.104,0 -29.624,20.976 -29.624,20.976l-0.368,0l0,-19.688l-28.704,0l0,2.675l12.88,0.085l0,77.28l-12.88,0l0,2.76Z" style="stroke-linecap:round;"></path>
        <path id="letter-1" d="M52.468,117.972c0.552,9.384 6.256,15.088 16.192,15.088c8.648,0 10.576,-3.717 11.562,-4.727c0,0 -1.521,1.784 -8.25,1.619c-3.863,-0.095 -4.968,-3.7 -4.968,-9.036l0,-48.024c0,-16.008 -9.016,-25.208 -31.28,-25.208c-19.32,0 -29.808,6.808 -29.808,16.928c0,7.36 5.704,11.96 13.984,11.96c3.864,0 7.741,-3.003 7.741,-3.003c-7.509,-0.439 -11.213,-3.437 -11.213,-9.509c0,-9.752 8.072,-13.984 19.296,-13.984c12.144,0 15.088,5.888 15.088,16.744l0,19.32l-1.84,0c-22.264,0 -47.472,6.44 -47.472,26.312c0,15.272 13.064,20.608 24.84,20.608c13.616,0 22.08,-7.912 25.76,-15.088l0.368,0Zm-1.656,-5.52c0,4.232 -4.048,9.568 -9.2,13.248c-3.68,2.576 -7.912,4.232 -11.96,4.232c-6.808,0 -10.672,-4.968 -10.672,-17.112c0,-10.12 3.312,-16.376 9.384,-19.872c4.784,-2.76 11.224,-4.048 19.136,-4.048l3.312,0l0,23.552Z" style=";stroke-linecap:round;"></path>
    </g>
</svg>