<?xml version="1.0" encoding="utf-8"?>
<svg viewBox="0 0 170 50" xmlns="http://www.w3.org/2000/svg">
  <path d="M 21.763 27.75 L 14.303 27.75 L 27.941 12.977 L 24.27 23.204 L 31.73 23.204 L 18.091 37.977 L 21.762 27.75 Z"/>
  <path d="M 50.395 32.218 C 53.571 32.218 55.828 30.547 55.828 27.726 C 55.828 24.634 53.341 23.861 51.127 23.192 C 48.849 22.502 48.494 22.042 48.494 21.374 C 48.494 20.789 49.016 20.267 50.061 20.267 C 51.398 20.267 52.088 20.915 52.589 21.959 L 55.41 20.309 C 54.345 18.157 52.465 17.007 50.061 17.007 C 47.533 17.007 45.151 18.637 45.151 21.457 C 45.151 24.257 47.282 25.302 49.455 25.908 C 51.649 26.514 52.485 26.869 52.485 27.768 C 52.485 28.332 52.088 28.958 50.5 28.958 C 48.85 28.958 47.95 28.144 47.428 26.932 L 44.545 28.604 C 45.36 30.756 47.324 32.218 50.395 32.218 Z M 63.21 24.488 L 63.21 21.478 L 61.058 21.478 L 61.058 18.553 L 57.924 19.493 L 57.924 21.479 L 56.252 21.479 L 56.252 24.488 L 57.924 24.488 L 57.924 28.186 C 57.924 31.111 59.114 32.344 63.21 31.926 L 63.21 29.083 C 61.831 29.167 61.058 29.083 61.058 28.185 L 61.058 24.487 L 63.21 24.487 Z M 72.365 21.478 L 72.365 22.461 C 71.675 21.667 70.652 21.186 69.252 21.186 C 66.515 21.186 64.258 23.589 64.258 26.702 C 64.258 29.816 66.515 32.218 69.252 32.218 C 70.652 32.218 71.676 31.738 72.365 30.944 L 72.365 31.926 L 75.499 31.926 L 75.499 21.479 L 72.365 21.479 Z M 69.879 29.251 C 68.437 29.251 67.392 28.269 67.392 26.702 C 67.392 25.135 68.437 24.153 69.879 24.153 C 71.321 24.153 72.365 25.135 72.365 26.703 C 72.365 28.269 71.321 29.251 69.879 29.251 Z M 82.813 32.218 C 84.861 32.218 86.637 31.153 87.536 29.523 L 84.798 27.956 C 84.464 28.687 83.691 29.126 82.772 29.126 C 81.414 29.126 80.411 28.144 80.411 26.702 C 80.411 25.261 81.413 24.278 82.771 24.278 C 83.691 24.278 84.443 24.718 84.798 25.448 L 87.536 23.861 C 86.637 22.251 84.84 21.186 82.813 21.186 C 79.637 21.186 77.276 23.589 77.276 26.702 C 77.276 29.816 79.637 32.218 82.813 32.218 Z M 98.826 31.926 L 94.919 26.702 L 98.722 21.479 L 95.065 21.479 L 91.931 26.055 L 91.931 17.3 L 88.797 17.3 L 88.797 31.926 L 91.931 31.926 L 91.931 27.308 L 95.274 31.926 L 98.826 31.926 Z M 109.151 24.341 C 109.945 23.651 110.426 22.691 110.426 21.479 C 110.426 18.95 108.357 17.299 105.808 17.299 L 100.083 17.299 L 100.083 31.926 L 106.226 31.926 C 108.838 31.926 110.948 30.234 110.948 27.642 C 110.948 26.159 110.238 25.031 109.151 24.342 Z M 105.808 20.434 C 106.581 20.434 107.083 20.977 107.083 21.729 C 107.083 22.482 106.56 23.025 105.808 23.025 L 103.426 23.025 L 103.426 20.433 L 105.808 20.433 Z M 106.226 28.792 L 103.426 28.792 L 103.426 25.992 L 106.226 25.992 C 107.062 25.992 107.605 26.577 107.605 27.392 C 107.605 28.207 107.062 28.792 106.226 28.792 Z M 112.507 31.926 L 115.641 31.926 L 115.641 16.673 L 112.507 16.673 L 112.507 31.926 Z M 119.502 20.559 C 120.535 20.548 121.371 19.713 121.382 18.679 C 121.371 17.645 120.535 16.81 119.502 16.799 C 118.468 16.81 117.632 17.645 117.622 18.679 C 117.632 19.713 118.468 20.548 119.502 20.559 Z M 117.935 31.926 L 121.069 31.926 L 121.069 21.479 L 117.935 21.479 L 117.935 31.926 Z M 129.485 24.488 L 129.485 21.478 L 127.332 21.478 L 127.332 18.553 L 124.198 19.493 L 124.198 21.479 L 122.527 21.479 L 122.527 24.488 L 124.198 24.488 L 124.198 28.186 C 124.198 31.111 125.389 32.344 129.484 31.926 L 129.484 29.083 C 128.105 29.167 127.332 29.083 127.332 28.185 L 127.332 24.487 L 129.484 24.487 Z M 135.145 29.001 L 139.095 23.568 L 139.095 21.478 L 131.155 21.478 L 131.155 24.404 L 134.895 24.404 L 130.945 29.836 L 130.945 31.926 L 139.303 31.926 L 139.303 29.001 L 135.145 29.001 Z"/>
</svg>

