<svg xmlns="http://www.w3.org/2000/svg" width="300" height="300" viewBox="0 0 300 300" class="h-32 w-32 flex-shrink-0 rounded-full lg:h-40 lg:w-40" alt="Swiper">
    <g fill="none" fill-rule="evenodd">
        <circle cx="150" cy="150" r="150" fill="#6332F6"></circle>
        <path fill="#fff" fill-rule="nonzero" d="M190.2 200.9c0-5.4-1.05-10.05-3.15-13.95-2.1-3.9-4.95-7.4-8.55-10.5-3.6-3.1-7.9-5.9-12.9-8.4s-10.4-5.15-16.2-7.95c-6.8-3.2-13.65-6.6-20.55-10.2-6.9-3.6-13.1-7.8-18.6-12.6-5.5-4.8-9.95-10.35-13.35-16.65-3.4-6.3-5.1-13.65-5.1-22.05 0-7 1.3-13.95 3.9-20.85 2.6-6.9 6.4-13.05 11.4-18.45s11.25-9.8 18.75-13.2c7.5-3.4 16.25-5.1 26.25-5.1 7.4 0 14.25.95 20.55 2.85 6.3 1.9 11.95 4.35 16.95 7.35s9.4 6.3 13.2 9.9c3.8 3.6 6.9 7.1 9.3 10.5l-18.9 15.3c-1.8-2.6-4.05-5.2-6.75-7.8-2.7-2.6-5.8-4.95-9.3-7.05-3.5-2.1-7.35-3.8-11.55-5.1-4.2-1.3-8.7-1.95-13.5-1.95-5.8 0-10.85.9-15.15 2.7-4.3 1.8-7.95 4.2-10.95 7.2-3 3-5.25 6.45-6.75 10.35S117 93.1 117 97.1c0 5 1.1 9.35 3.3 13.05 2.2 3.7 5.3 7.15 9.3 10.35 4 3.2 8.9 6.3 14.7 9.3 5.8 3 12.3 6.1 19.5 9.3 8 3.6 15.25 7.35 21.75 11.25 6.5 3.9 12 8.15 16.5 12.75s7.95 9.8 10.35 15.6c2.4 5.8 3.6 12.6 3.6 20.4 0 9.2-1.65 17.45-4.95 24.75-3.3 7.3-7.85 13.5-13.65 18.6-5.8 5.1-12.65 9-20.55 11.7-7.9 2.7-16.35 4.05-25.35 4.05s-17.1-1.25-24.3-3.75c-7.2-2.5-13.6-5.8-19.2-9.9-5.6-4.1-10.4-8.8-14.4-14.1-4-5.3-7.2-10.65-9.6-16.05l21-12.6c1.8 4.2 4.15 8.25 7.05 12.15 2.9 3.9 6.25 7.35 10.05 10.35 3.8 3 8.15 5.4 13.05 7.2 4.9 1.8 10.25 2.7 16.05 2.7 5 0 9.85-.7 14.55-2.1 4.7-1.4 8.85-3.5 12.45-6.3 3.6-2.8 6.5-6.25 8.7-10.35 2.2-4.1 3.3-8.95 3.3-14.55z"></path>
    </g>
</svg>